<svg xmlns="http://www.w3.org/2000/svg" width="710" height="168" viewBox="0 0 710 168" fill="none"><path d="M405.754 41.3626C405.682 46.4569 405.801 51.5453 406.303 56.6506C407.609 58.7504 407.115 60.9648 406.867 63.5187C405.344 63.0749 404.265 61.4019 402.838 61.8519C402.567 62.0051 402.297 62.1583 402.005 62.3122C402.001 63.9614 402.018 65.639 402.014 67.2883C402.657 69.843 403.963 68.9628 405.201 68.5476C405.576 67.7546 405.923 66.7889 406.786 67.1668C407.498 67.4915 407.32 68.4519 407.305 69.2046C407.571 74.8381 407.815 80.4722 408.081 86.1057C408.151 88.0709 408.221 90.0072 408.291 91.9723C408.36 104.556 408.281 117.144 409.008 129.736C409.944 130.95 409.661 132.55 409.734 133.995C409.926 138.155 410.075 142.317 410.224 146.478C410.463 146.615 410.701 146.752 410.94 146.89C411.194 146.882 411.41 146.99 411.609 147.216C413.19 148.063 414.736 147.985 416.277 147.126C416.506 147.003 416.755 146.851 416.984 146.728C417.212 146.576 417.441 146.453 417.669 146.301C417.744 146.01 417.885 145.803 418.114 145.68C418.589 138.2 417.897 130.757 417.502 123.276C416.259 119.988 416.245 116.632 417.056 113.222C416.363 93.8878 416.03 74.5424 414.342 55.2977C413.44 54.4003 413.383 53.4184 414.131 52.3532C414.252 49.2247 413.613 46.2069 413.206 43.1529C413.628 40.1017 414.501 41.3761 415.401 42.7944C415.601 43.0485 415.818 43.1574 416.092 43.1198C416.375 43.3134 416.659 43.5359 416.921 43.7302C417.158 43.8384 417.396 43.9467 417.634 44.0838C417.896 44.2781 418.157 44.4724 418.441 44.6949C418.679 44.8031 418.938 44.9396 419.176 45.0479C419.438 45.2421 419.699 45.4364 419.961 45.6307C420.199 45.7678 420.458 45.8754 420.696 46.0126C420.958 46.2068 421.221 46.43 421.483 46.6243C422.164 47.2683 422.823 47.884 423.675 47.9729C423.981 48.2236 424.308 48.4448 424.614 48.6955C424.614 48.6955 424.83 48.8044 424.809 48.8051C424.938 48.8589 425.047 48.9422 425.156 49.0256C428.571 51.898 432.277 54.009 435.903 56.2671C440.008 58.8573 443.954 61.7419 447.845 64.8597C452.041 68.2282 456.302 71.5948 461.09 73.1219C462.959 73.7284 462.956 75.4066 463.004 77.3436C463.237 89.1696 463.532 100.965 463.765 112.791C463.962 122.419 464.073 132.021 464.27 141.65C464.319 143.615 464.04 145.91 465.96 146.746C468.052 147.664 470.157 147.771 472.004 146.006C473.113 144.958 472.671 143.294 472.513 141.824C471.616 140.492 471.548 139.192 472.434 137.862C472.758 134.467 473.104 131.071 472.745 127.582C472.041 126.909 472.082 126.272 472.739 125.643C472.792 116.47 473.206 107.285 472.431 98.1092C471.426 96.1446 471.312 94.1229 472.259 92.1256C472.165 82.4073 472.071 72.6889 471.979 62.9994C471.956 61.1774 471.592 59.3083 472.187 57.5536C476.044 56.7954 479.867 58.0058 483.714 58.1449C484.243 58.0993 484.773 58.0826 485.323 58.0363C486.504 56.6104 487.334 57.8572 487.401 59.1281C487.648 64.849 488.66 70.5746 487.612 76.2784C487.582 76.6266 487.53 76.9465 487.541 77.2644C488.213 84.7367 488.673 92.2447 488.454 99.7451C489.275 100.732 489.289 101.715 488.475 102.696C488.521 110.506 488.569 118.345 488.615 126.155C489.34 126.827 489.299 127.465 488.621 128.094C488.583 133.534 488.225 138.956 489.141 144.366C489.384 144.619 489.626 144.872 489.89 145.124C490.147 145.203 490.405 145.281 490.662 145.331C491.426 145.336 492.211 145.311 492.975 145.316C493.508 145.386 493.992 145.255 494.398 144.75C494.474 144.487 494.616 144.309 494.782 144.217C494.775 132.182 494.98 120.139 494.464 108.091C494.281 103.583 494.182 99.0437 494.061 94.5051C494.394 93.7135 494.933 93.3493 495.569 93.3292C500.869 93.1332 506.191 92.9654 511.492 92.7694C512.255 92.7453 512.982 92.896 513.362 94.0124C513.438 94.9648 513.514 95.8882 513.591 96.8406C514.312 97.4254 514.399 98.0592 513.724 98.7749C513.799 105.601 514.445 112.379 515.134 119.157C516.167 120.744 516.206 122.421 515.397 124.125C515.616 130.223 515.62 136.269 514.966 142.308C514.522 146.488 515.276 147.39 518.38 147.524C518.997 147.562 519.633 147.542 520.244 147.407C522.392 146.935 522.853 146.168 522.89 143.042C523.086 125.416 521.842 107.893 520.384 90.348C519.494 79.7289 518.836 69.0736 518.009 58.4525C517.813 55.9415 518.485 55.1392 520.248 55.1704C523.986 55.2262 527.694 55.0224 531.431 55.0493C545.977 55.1694 560.499 54.5959 575.005 53.6177C575.619 53.5694 576.253 53.4916 576.869 53.5011C579.248 53.5418 579.335 53.5969 579.436 57.0078C579.725 66.8357 580.161 76.6301 580.216 86.4365C580.292 104.546 581.387 122.652 581.527 140.759C581.556 145.127 582.685 146.423 585.863 146.236C588.892 146.053 589.635 144.873 589.567 140.622C588.994 111.013 588.378 81.4053 587.868 51.7945C587.689 41.4713 588.126 31.1575 587.523 20.8476C587.369 18.3354 587.833 17.0766 589.876 17.2147C594.727 17.5247 599.574 17.6902 604.418 17.7979C606.245 17.856 607.156 18.9846 607.475 21.3759C608.292 27.5706 609.256 33.7318 609.966 39.9299C610.853 47.4823 611.718 55.0353 613.781 62.2323C615.746 69.0853 615.685 76.2624 615.937 83.2851C616.523 100.221 618.463 117.028 619.641 133.887C619.732 135.244 619.864 136.571 619.998 137.926C620.142 139.571 620.869 140.329 622.054 140.205C623.45 140.074 623.51 138.77 623.393 137.298C622.9 131.238 622.596 125.143 621.912 119.089C620.423 105.971 620.076 92.7602 619.413 79.5879C619.313 77.3922 619.107 75.1998 618.965 73.0054C618.694 69.0212 618.794 68.8445 621.632 69.2469C630.059 70.3989 638.488 71.6088 646.913 72.7319C651.499 73.3396 656.085 73.9472 660.682 74.2652C662.767 74.402 663.679 75.5595 664.369 78.2284C668.251 93.5271 672.446 108.7 677.059 123.657C678.309 127.755 679.54 131.883 681.123 135.768C681.869 137.625 680.547 140.415 682.771 141.473C684.348 142.234 685.962 142.241 687.562 142.48C692.878 143.296 698.213 144.082 703.525 144.812C705.403 145.071 707.274 145.157 708.945 143.802C710.039 142.928 710.011 141.569 708.937 140.62C707.951 139.783 706.821 139.645 705.71 139.448C700.39 138.488 695.077 137.729 689.733 137.29C686.753 137.066 686.751 137.008 686.066 133.297C682.555 114.139 677.997 95.3608 673.377 76.6425C672.235 72.0204 670.539 69.7303 666.847 69.1812C651.629 66.8835 636.418 64.2094 621.134 63.0421C619.154 62.902 618.962 61.6929 618.804 59.6436C617.971 48.8491 617.138 38.0547 616.158 27.2937C615.88 24.2935 615.285 21.3033 614.648 18.3433C613.957 15.0668 613.114 14.0518 610.63 14.0433C601.82 14.0317 592.999 12.545 584.177 13.4017C580.391 13.7815 579.944 14.3453 579.891 19.3812C579.806 27.6586 579.721 35.936 579.637 44.2422C579.583 49.2493 579.584 49.2782 576.037 49.2453C566.715 49.1631 557.386 48.9075 548.089 48.9402C538.029 48.997 527.975 49.2271 517.922 49.5151C512.77 49.6775 511.661 51.3327 511.42 58.2262C511.114 66.8578 511.699 75.4612 512.263 84.0943C512.543 88.3385 512.542 88.3096 509.442 88.2916C505.217 88.2801 500.995 88.3554 496.769 88.315C494.305 88.277 494.257 88.1338 494.225 84.8654C494.158 75.8985 494.05 66.9617 494.089 57.9914C494.086 56.1109 493.663 54.9959 492.358 54.6898C491.008 54.3563 489.637 53.9945 488.28 54.0661C482.541 54.4496 476.876 53.3551 471.177 52.4932C470.196 52.3506 469.191 52.1508 468.193 52.1533C463.924 52.0854 462.931 53.4187 462.923 59.1186C462.915 60.6523 462.905 62.1571 462.854 63.6921C462.843 63.9818 462.684 64.2761 462.495 64.9186C460.775 64.915 459.302 63.5148 457.86 62.374C447.197 53.9147 435.862 47.4151 424.796 40.1547C421.753 38.1675 418.61 36.3859 415.473 34.72C413.807 33.8467 413.186 32.5353 413.228 30.1326C413.292 25.4146 413.164 20.6737 413.1 15.9308C413.061 11.8814 412.576 10.7684 409.831 10.5945C404.491 10.271 399.146 10.4106 393.847 11.2142C391.229 11.615 390.743 12.8744 390.649 16.7543C390.598 18.8969 391.327 21.4489 390.241 23.1323C389.255 24.6679 387.395 23.685 385.995 24.3078C385.764 24.4018 385.511 24.4387 385.281 24.5328C377.269 27.2446 378.704 27.6044 378.787 35.8476C378.884 45.6526 378.386 55.4475 379.014 65.2648C379.169 67.806 378.428 68.4658 376.706 68.3755C366.854 67.7313 357.12 69.1955 347.418 70.9769C343.39 71.7114 344.005 70.5058 343.946 67.0937C343.77 56.2495 342.641 45.4933 341.344 34.7713C340.981 31.7737 340.871 28.7104 340.698 25.649C340.427 21.0573 339.778 20.1229 336.353 19.9127C333.629 19.7381 330.888 19.6799 328.151 19.7083C323.927 19.7257 319.703 19.7432 315.483 19.8762C309.822 20.0547 308.822 21.1856 308.66 29.0893C308.526 36.0084 308.732 42.9457 308.811 49.887C308.824 51.4201 308.878 52.9229 308.954 54.4539C309.043 56.3606 308.461 57.3048 307.009 57.0612C306.39 56.965 305.752 56.9273 305.15 56.7148C295.594 53.0812 285.8 51.683 276.04 50.0522C261.689 47.6693 247.369 44.996 232.956 43.8302C227.016 43.352 221.058 44.1474 215.1 44.3641C214.231 44.3916 213.36 44.3901 212.492 44.4464C211.073 44.549 210.411 43.8465 210.612 41.757C210.893 38.9128 211.044 36.0437 211.775 33.33C212.413 30.9953 211.585 29.8062 210.114 29.0425C209.422 28.6882 208.671 28.4514 207.945 28.3586C199.645 27.1736 191.345 26.0176 183.048 24.9193C181.811 24.7558 180.561 24.8242 179.336 25.0074C177.079 25.3969 175.258 26.7273 175.042 30.1771C174.89 32.4386 173.859 33.8888 172.802 35.1951C167.439 41.9319 163.845 50.6381 159.147 58.1351C156.656 62.0906 155.437 67.1633 153.321 71.4831C152.846 72.4528 152.328 73.395 151.941 74.4488C149.428 81.3271 145.673 86.1326 139.646 87.9717C139.123 85.2396 139.379 82.3094 139.551 79.4107C140.055 69.7892 139.646 60.1387 139.895 50.5252C139.944 48.3248 139.085 47.455 137.675 47.2101C136.436 46.9888 135.197 46.7964 133.966 46.7773C131.331 46.7157 128.767 46.2469 126.241 45.0824C125.658 44.8114 125.036 44.6285 124.416 44.5034C118.914 43.2302 117.098 45.2549 117.028 52.7795C117.001 56.1655 117.101 59.5474 117.095 62.9327C117.08 66.6655 117.043 66.8114 114.437 66.3727C101.687 64.2286 88.8764 63.967 76.0717 63.2713C73.3492 63.1257 70.6086 63.0674 67.869 63.038C66.8713 63.0405 65.7837 62.9012 64.9319 63.4199C61.2543 65.6479 57.4022 64.7857 53.5931 64.5297C46.6141 64.0842 39.7029 64.9386 32.7622 65.5625C28.9526 65.8851 28.0724 67.3884 28.0904 72.6246C28.1294 83.1838 29.5213 93.5845 31.6471 103.731C33.208 111.146 32.4756 118.547 32.7622 125.945C32.815 127.419 32.1147 128.019 31.1171 128.022C29.5034 128.015 27.8847 127.863 26.2741 127.943C12.0137 128.682 -2.24683 129.421 -16.5032 130.275C-18.8548 130.407 -21.1992 130.742 -23.4287 131.911C-24.1373 132.281 -24.8173 132.852 -24.7971 134.009C-24.7769 135.165 -24.0553 135.75 -23.3411 136.133C-21.7822 136.98 -20.1686 136.987 -18.5591 136.879C-2.08558 135.694 14.389 134.538 30.8625 133.353C32.3448 133.249 33.8281 133.173 35.3248 133.473C36.8226 133.802 38.2987 133.524 39.6185 132.441C41.8666 130.605 42.197 129.756 41.1821 126.316C40 122.36 39.8187 118.489 40.2865 114.366C40.7212 110.504 40.2208 106.614 39.7851 102.751C38.7325 93.5256 37.6375 84.3017 37.4936 74.961C37.4359 70.3915 37.4126 70.3344 40.9073 70.1085C46.6041 69.7264 52.3061 69.4888 58.0231 69.0771C59.8861 68.9315 60.6127 69.6609 60.8172 72.403C61.8634 86.7784 61.806 101.16 62.3422 115.522C62.5423 121.1 62.6786 126.68 62.8998 132.257C63.0516 135.897 63.8735 136.913 66.58 137.204C70.0964 137.585 71.4115 135.778 71.602 131.027C71.9852 121.583 72.3682 112.139 72.9867 102.746C73.5721 93.6135 72.8417 84.4938 72.4516 75.3924C72.4092 74.2075 72.2818 73.0253 72.1545 71.8431C71.9123 69.8254 72.6084 69.1091 74.011 69.1517C75.8812 69.2084 77.7452 69.0918 79.5962 69.2071C91.0226 69.9463 102.448 70.6566 113.873 71.9455C117.304 72.3292 117.346 72.299 117.513 76.9518C118.034 90.3022 118.514 103.683 119.014 117.034C119.153 120.935 119.25 124.809 119.475 128.708C119.791 134.571 120.362 135.103 124.897 134.295C125.187 134.083 125.455 133.872 125.746 133.689C126.934 133.073 126.863 131.687 126.814 130.328C126.452 120.213 126.089 110.098 125.747 99.9829C125.104 99.222 125.068 98.2105 125.032 97.199C124.669 87.0841 124.306 76.9691 123.943 66.8253C123.9 65.6404 123.751 64.4299 124.483 63.5389C124.477 60.4143 124.45 57.2905 124.444 54.166C124.45 52.5456 124.176 50.8472 125.038 49.4312C125.497 49.1853 125.924 49.2587 126.263 49.8266C126.798 49.9544 127.332 50.0533 127.889 50.1804C129.692 50.1525 131.491 50.009 133.299 50.0966C134.214 50.1546 134.6 50.8657 133.92 52.0156C133.211 57.1011 133.756 62.2339 133.812 67.3532C134.515 68.0254 134.474 68.6632 133.796 69.2922C133.101 81.8708 134.04 94.4268 134.49 106.998C135.473 108.935 135.543 110.9 134.702 112.894C134.497 118.426 135.581 123.803 135.968 129.259C136.949 130.559 136.975 131.889 136.111 133.247C136.257 137.322 136.73 138.088 139.354 138.439C142.596 138.858 144.545 137.552 144.811 134.332C145.034 131.664 144.978 128.917 144.818 126.231C144.293 116.931 143.664 107.664 143.076 98.3661C142.863 94.8141 143.667 93.5447 147.595 91.193C148.337 92.3559 148.005 93.7551 148.008 95.028C147.993 107.035 147.892 119.017 146.642 130.918C146.261 134.518 146.828 135.513 149.072 135.934C152.128 136.503 153.635 135.298 153.871 131.819C154.702 120.075 155.319 108.28 155.426 96.4433C155.419 96.2699 155.434 96.0959 155.428 95.9225C155.387 88.2567 155.674 80.8698 160.157 75.0577C162.165 72.4484 163.306 68.738 164.561 65.2554C167.146 58.0276 170.871 51.7765 173.939 44.9964C175.365 45.6747 174.862 47.0504 174.877 48.0625C175.563 75.4689 176.863 102.856 179.117 130.184C179.314 132.724 179.32 135.27 179.517 137.781C179.78 140.984 180.942 142.018 183.715 141.786C186.381 141.557 187.196 140.576 186.928 137.258C184.892 111.254 184.53 85.1969 183.936 59.1474C183.739 50.7054 183.902 42.223 183.769 33.7789C183.721 31.2633 184.312 30.5792 186.127 30.8692C191.701 31.7929 197.271 32.601 202.835 33.2646C204.413 33.4463 205.036 34.2368 205.11 36.3176C205.327 42.3577 205.776 48.3615 205.633 54.4418C205.35 66.0816 205.854 77.7834 205.784 89.4454C205.705 103.827 206.667 118.205 206.97 132.575C207.006 134.773 207.042 136.971 207.036 139.17C207.029 142.526 207.416 143.237 209.468 143.636C211.947 144.107 213.751 142.893 214.147 140.334C214.355 139.026 214.349 137.666 214.385 136.305C214.889 123.125 214.055 109.929 214.218 96.7308C214.386 83.0405 214.106 69.3353 214.018 55.6241C214.003 54.6119 214.073 53.5971 214.036 52.5856C213.975 50.2729 214.731 49.4679 216.466 49.2975C222.667 48.7548 222.621 48.6695 222.984 57.0195C223.445 67.5075 224.012 77.9921 224.536 88.4491C225.364 105.03 225.554 121.574 225.215 138.163C225.151 141.116 225.737 142.081 227.936 142.417C228.79 142.563 229.681 142.535 230.545 142.363C232.991 141.91 233.55 140.909 233.7 137.403C234.623 116.977 234.463 96.5266 233.687 76.0669C233.628 74.4196 233.29 72.6942 233.95 70.9664C235.826 70.589 237.547 71.8078 239.333 72.4748C241.613 73.3288 243.861 74.4441 246.142 75.2981C247.347 75.7519 248.57 76.1184 249.805 76.2241C250.998 76.3312 252.66 76.5103 252.864 74.4786C253.052 72.621 251.449 72.3243 250.439 71.98C245.965 70.3562 241.492 68.7612 236.985 67.3988C233.144 66.2469 233.108 66.4217 233.102 60.9247C233.105 60.4327 233.237 59.9656 233.322 59.3843C234.726 58.8482 236.031 59.7329 237.298 60.1269C247.883 63.4676 258.619 65.6752 269.287 68.3479C270.894 68.7602 272.498 69.0857 274.035 68.1404C274.471 67.8662 274.97 67.5901 274.918 66.7238C274.889 65.9146 274.448 65.4655 273.977 65.3357C272.536 64.8314 271.057 64.4152 269.6 64.056C258.296 61.4034 246.992 58.7508 235.669 56.1566C234.086 55.8015 232.759 55.5251 232.742 52.6613C232.726 50.434 233.23 49.6948 234.895 49.9606C238.845 50.5883 242.828 50.9546 246.778 51.5823C261.619 54.0077 276.54 55.1286 291.356 58.0466C296.787 59.1195 302.056 61.6151 307.574 61.5569C308.656 61.5517 309.113 62.4632 309.122 63.8806C309.186 70.996 309.632 78.0993 310.372 85.1355C310.634 87.7022 309.74 88.2223 308.067 88.3329C300.377 88.7778 292.679 88.4129 284.969 87.7012C281.497 87.3767 278.007 87.1395 274.527 87.1914C270.432 87.2626 269.614 88.7061 269.684 94.23C269.84 107.447 270.843 120.609 271.485 133.782C271.542 134.793 271.642 135.802 271.785 136.81C272.25 140.325 273.527 141.587 276.891 141.857C278.913 142.025 280.674 140.204 281.101 137.327C281.258 136.367 281.177 135.299 281.183 134.286C281.237 122.769 280.146 111.289 279.756 99.8147C279.505 92.2134 279.079 92.7765 284.495 93.4448C294.943 94.7067 305.361 93.9732 315.762 93.356C320.804 93.0524 320.891 93.1364 320.849 100.226C320.794 110.557 321.249 120.871 322.254 131.14C322.448 132.985 322.874 134.795 323.004 136.642C323.151 138.981 323.822 140.522 325.6 140.958C327.741 141.469 329.845 141.548 331.576 139.497C332.187 138.783 332.147 137.656 332.005 136.648C330.483 125.586 331.119 114.311 329.598 103.278C328.853 97.8908 329.369 94.5183 333.037 91.4226C337.281 87.8458 340.928 82.9859 344.648 78.3841C346.03 76.6625 347.522 76.818 349.086 76.624C349.698 76.5468 350.307 76.354 350.897 76.2197C351.982 75.115 353.275 75.6529 354.481 75.5281C356.029 75.4793 357.58 75.5172 359.086 74.8911C364.494 72.377 370.192 73.21 375.783 72.8312C376.927 72.7662 377.948 73.4284 378.929 74.1497C380.037 76.0244 379.4 78.388 379.94 80.4252C380.006 81.6672 380.049 82.881 380.115 84.123C380.046 88.1179 380.295 92.1027 380.65 96.0842C381.159 96.6468 381.376 97.3922 381.429 98.2585C381.631 103.894 381.833 109.529 382.034 115.136C382.065 116.003 381.901 116.76 381.434 117.354C381.405 124.819 381.757 132.273 382.236 139.722C383.429 141.016 382.879 142.856 383.127 144.439C383.364 144.547 383.581 144.656 383.818 144.765C385.345 144.716 386.873 144.697 388.421 144.648C388.698 144.697 388.907 144.604 389.088 144.309C389.269 144.043 389.451 143.777 389.631 143.482C390.296 141.899 389.937 140.174 389.878 138.527C388.981 115.872 387.999 93.2197 386.487 70.6131C385.758 59.7575 386.455 49.0016 386.386 38.183C386.373 36.65 386.447 35.1432 386.456 33.6384C386.506 29.702 386.506 29.702 389.814 28.9901C390.417 29.8391 390.285 30.8848 390.278 31.8688C389.866 54.7095 391.384 77.5183 392.541 100.31C393.251 114.175 393.98 128.01 394.731 141.845C394.843 143.78 394.27 146.142 396.234 147.064C398.199 147.986 400.196 148.009 401.993 146.622C403.295 145.626 402.991 143.668 402.911 142.022C402.574 134.423 402.175 126.826 401.796 119.229C401.675 117.034 401.49 114.841 401.326 112.647C400.251 111.061 400.254 109.383 401.021 107.68C401.145 102.266 400.381 96.9377 400.06 91.5375C399.062 75.5403 399.337 59.532 398.805 43.5201C398.745 41.8439 398.642 40.1691 398.56 38.4647C397.663 37.1331 397.594 35.8044 398.503 34.5027C398.52 29.0628 399.111 23.6338 398.575 18.1536C398.055 15.5082 398.628 14.9115 400.825 15.797C402.11 16.1037 403.402 16.0051 404.686 15.7042C405.496 15.2157 405.91 16.0996 405.978 16.8207C406.216 19.909 406.858 23.0135 405.906 26.0525C405.945 29.4942 406.453 33.008 405.275 36.2856C406.713 37.8894 406.668 39.5978 405.754 41.3626ZM317.613 56.7559C317.51 53.8948 317.449 51.0035 317.304 48.1438C316.961 41.5579 317.087 34.9863 317.233 28.414C317.298 26.0684 317.735 24.637 319.774 24.6884C323.238 24.7817 326.717 24.701 330.193 24.5625C331.614 24.5177 332.152 25.3108 332.284 27.2162C332.505 30.4207 332.831 33.593 333.284 36.7613C334.877 48.0237 334.767 59.7448 338.673 70.4135C339.121 71.6435 338.879 72.6059 338.127 73.5265C333.857 78.7822 329.113 83.2427 324.505 87.9304C322.006 90.4684 319.723 88.3705 319.208 84.0758C318.139 74.9957 318.024 65.8566 317.613 56.7559Z" fill="#0092DD"></path><path d="M43.1225 97.7687C43.8866 105.506 44.6244 113.102 45.4043 120.697C45.632 122.915 46.2017 124.695 48.0476 125.664C51.4809 127.44 53.1593 126.103 52.4973 121.187C51.144 111.128 50.6099 101.015 50.1179 90.8999C50.0051 88.3637 48.3165 86.5049 46.3773 86.4518C44.5654 86.4232 43.6791 87.5354 43.4476 90.4533C43.2618 92.8847 43.2263 95.397 43.1225 97.7687Z" fill="#0092DD"></path><path d="M95.0938 123.703C95.2128 117.638 95.2127 117.638 90.8091 117.118C88.9801 116.918 87.1557 116.26 85.3051 116.633C83.791 116.937 82.8286 117.854 82.8914 120.168C82.9567 123.139 82.9597 126.14 82.9616 129.114C82.9727 131.172 83.7623 131.919 85.2368 132.273C87.8652 132.906 90.3433 132.314 92.8637 131.72C94.7112 131.262 95.6369 129.918 95.2634 127.214C95.094 126.047 95.1362 124.873 95.0938 123.703Z" fill="#0092DD"></path><path d="M502.865 120.001C503.11 115.172 502.287 110.377 502.323 105.554C502.352 102.871 500.798 102.835 499.457 102.906C498.158 102.975 497.043 103.467 497.233 105.829C498.017 115.932 498.78 126.036 499.501 136.141C499.63 137.963 500.21 138.914 501.595 138.899C503.063 138.881 503.438 137.643 503.356 135.934C503.121 130.606 502.637 125.315 502.865 120.001Z" fill="#0092DD"></path><path d="M449.353 75.5063C446.848 72.4924 444.234 70.57 441.68 68.5598C436.617 64.5666 431.553 60.5735 426.451 56.6961C424.838 55.4867 423.174 54.0499 421.191 54.9137C420.858 55.0673 420.465 55.3659 420.352 55.7417C420.144 56.4354 420.521 56.9103 421.001 57.2675C429.065 63.3141 437.11 69.4186 445.196 75.4646C446.351 76.3161 447.616 77.3072 449.353 75.5063Z" fill="#0092DD"></path><path d="M380.331 84.1008C380.265 82.8581 380.221 81.6435 380.155 80.4008C379.823 80.614 379.439 81.1473 379.201 81.039C372.624 78.1789 365.943 79.5487 359.285 79.1809C357.18 79.074 355.083 79.2273 352.986 79.3517C352.266 79.4035 351.508 79.5723 350.818 79.8547C350.232 80.1049 349.72 80.6133 349.799 81.624C349.869 82.4034 350.309 82.8238 350.802 82.9529C351.639 83.2158 352.498 83.4781 353.347 83.4801C362.118 83.5783 370.887 83.6186 379.636 83.6886C379.871 83.7101 380.113 83.963 380.331 84.1008Z" fill="#0092DD"></path><path d="M606.323 107.486C606.327 107 606.318 106.172 606.33 105.343C606.425 100.367 606.09 99.8921 602.513 99.9182C601.772 99.9128 601.036 100.05 600.322 100.215C596.525 101.163 596.085 101.891 596.21 107.088C596.39 114.969 596.724 115.416 602.544 115.948C602.906 115.994 603.288 116.039 603.648 116.028C606.042 116.068 606.184 115.892 606.241 112.804C606.253 111.975 606.202 111.147 606.214 110.318C606.227 109.489 606.281 108.659 606.323 107.486ZM602.857 106.48C602.832 108.11 602.844 109.624 602.813 111.111C602.802 111.968 602.664 112.83 601.882 112.854C600.973 112.911 600.562 112.067 600.501 110.983C600.405 109.5 600.371 107.986 600.339 106.502C600.323 104.902 599.985 102.598 601.703 102.687C603.654 102.769 602.453 105.264 602.857 106.48Z" fill="#0092DD"></path><path d="M374.124 92.6952C371.372 91.1235 368.886 91.0865 366.464 91.0474C358.796 90.943 351.133 91.0131 343.452 91.1421C341.966 91.1604 339.548 90.6263 339.693 93.475C339.815 95.713 342.109 95.1447 343.53 95.0993C352.673 94.8655 361.796 94.079 370.96 94.4559C371.959 94.4822 372.956 94.4503 374.124 92.6952Z" fill="#0092DD"></path><path d="M594.701 43.8655C595.069 49.9414 593.719 49.4978 600.18 51.3249C601.015 51.556 601.887 51.6716 602.734 51.6737C603.199 51.6591 603.72 51.4142 604.11 51.0876C606.826 48.8878 605.399 45.1599 605.669 42.0934C605.877 39.6576 605.197 37.8498 603.269 37.2242C601.469 36.6517 599.666 35.9651 597.83 35.5652C595.184 34.9907 594.535 35.7826 594.518 39.4127C594.538 40.5553 594.623 41.7244 594.701 43.8655ZM601.848 48.8434C599.52 48.8877 598.339 47.8386 598.503 44.7754C598.602 42.8289 598.149 40.8425 598.629 38.9126C601.815 39.1845 601.879 39.1825 601.985 42.6945C602.078 44.6636 602.404 46.654 601.848 48.8434Z" fill="#0092DD"></path><path d="M298.139 117.751C297.771 115.164 297.276 111.411 296.696 107.66C296.423 105.955 295.843 104.517 294.278 104.481C292.607 104.447 291.935 105.725 291.65 107.761C291.1 111.832 290.995 115.947 290.827 120.064C290.753 122.093 291.675 123.035 293.022 123.479C296.296 124.604 298.467 122.708 298.139 117.751Z" fill="#0092DD"></path><path d="M605.76 76.823C605.619 70.5957 605.619 70.5957 600.977 70.4836C595.401 70.3436 594.779 71.3064 595.434 78.8326C595.764 82.6814 595.989 83.046 598.706 83.79C599.07 83.893 599.432 83.9674 599.816 84.0411C605.487 85.0644 605.933 84.5073 605.76 76.823ZM602.487 76.4966C602.508 76.496 602.529 76.4953 602.55 76.4947C602.55 77.6667 602.572 78.838 602.528 79.9828C602.492 80.7272 602.127 81.1674 601.578 81.2132C600.965 81.2609 600.331 81.3093 599.88 80.5516C599.385 79.7381 599.134 74.5719 599.526 73.7021C599.919 72.8608 600.557 72.9266 601.173 72.9645C601.873 72.9998 602.336 73.4998 602.413 74.4693C602.481 75.1819 602.463 75.8399 602.487 76.4966Z" fill="#0092DD"></path><path d="M308.677 114.453C308.737 116.107 308.798 117.789 308.858 119.443C308.942 122.352 309.455 123.106 311.401 123.217C313.516 123.35 314.474 122.407 314.717 119.801C314.919 117.797 314.615 115.808 314.333 113.848C313.964 111.233 313.532 108.62 313.099 106.008C312.853 104.446 312.069 103.785 310.931 103.821C309.834 103.855 309.056 104.508 308.772 106.001C308.241 108.815 308.639 111.657 308.677 114.453Z" fill="#0092DD"></path><path d="M343.61 124.966C343.733 126.618 343.814 128.272 344 129.922C344.314 132.738 345.151 133.683 347.178 133.648C349.163 133.614 349.828 132.737 350.015 129.733C350.188 126.93 350.022 124.109 349.836 121.288C349.667 118.952 348.481 117.704 347.239 116.687C345.367 115.147 343.495 116.547 343.349 119.521C343.266 121.322 343.46 123.172 343.525 124.969C343.567 124.967 343.588 124.967 343.61 124.966Z" fill="#0092DD"></path><path d="M425.382 107.746C425.412 108.573 425.442 109.4 425.472 110.227C425.633 114.105 426.974 115.547 429.717 114.862C431.223 114.472 432.097 113.503 431.95 111.195C431.727 107.376 431.211 103.623 430.569 99.9035C430.247 98.0008 429.328 97.1445 427.873 97.2186C426.334 97.2954 425.786 98.4832 425.599 100.345C425.393 102.807 425.313 105.264 425.382 107.746Z" fill="#0092DD"></path><path d="M253.43 120.826C253.268 118.69 253.127 116.525 252.923 114.39C252.729 112.54 252.01 111.364 250.468 111.355C248.84 111.32 247.905 112.32 247.836 114.492C247.678 118.294 247.499 122.097 247.531 125.893C247.537 128.405 248.608 129.399 250.803 129.359C253.02 129.318 253.913 128.319 253.842 125.781C253.782 124.127 253.575 122.477 253.409 120.827C253.409 120.827 253.409 120.827 253.43 120.826Z" fill="#0092DD"></path><path d="M570.197 109.13C570.392 113.926 571.646 115.801 574.477 115.627C577.181 115.457 578.348 113.191 578.138 108.568C577.994 105.171 576.694 103.783 573.883 103.928C571.136 104.071 570.048 105.62 570.197 109.13Z" fill="#0092DD"></path><path d="M436.602 80.674C437.593 80.4996 438.309 80.3624 438.512 79.5244C438.804 78.2248 437.899 77.823 437.25 77.4706C432.764 74.8582 428.26 72.3324 423.551 70.5873C422.842 70.3228 422.079 70.3467 421.337 70.37C420.47 70.4258 419.435 70.5443 419.337 71.9525C419.255 73.1882 420.258 73.3575 420.927 73.6807C425.178 75.6695 429.43 77.687 433.68 79.6472C434.737 80.1302 435.85 80.4108 436.602 80.674Z" fill="#0092DD"></path><path d="M532.599 65.7181C529.959 65.8008 529.1 67.1984 529.629 70.6945C530.013 73.1385 530.461 75.5805 530.972 77.9919C531.277 79.4103 532.006 80.2728 533.148 80.2656C534.331 80.2571 534.952 79.2952 535.155 77.8895C535.489 75.4516 535.824 73.0137 535.988 70.524C536.24 66.9749 535.197 65.6368 532.599 65.7181Z" fill="#0092DD"></path><path d="M634.487 106.885C635.605 106.707 637.09 106.717 638.568 107.102C639.703 107.382 640.793 107.003 641.86 106.596C642.467 106.347 642.891 105.76 642.919 104.782C642.943 103.689 642.714 102.634 641.877 102.373C637.716 101.124 633.539 100.624 629.395 102.219C628.641 102.501 628.139 103.293 628.417 104.519C628.692 105.66 629.034 106.913 630.056 106.996C631.375 107.098 632.749 106.94 634.487 106.885Z" fill="#0092DD"></path><path d="M557.459 68.3968C557.662 69.9038 557.977 72.1782 558.313 74.4519C558.565 76.1571 559.318 77.1329 560.608 77.1496C561.898 77.1663 562.556 76.0892 562.814 74.4536C563.242 71.6991 563.48 68.9221 563.272 66.1019C563.056 63.0535 562.107 61.9411 559.954 62.0085C557.844 62.1032 557.269 63.1491 557.394 66.6001C557.407 66.9423 557.418 67.256 557.459 68.3968Z" fill="#0092DD"></path><path d="M452.872 108.982C452.829 107.813 452.766 106.644 452.746 105.502C452.719 103.59 452.184 102.264 450.615 102.142C448.962 102.022 447.649 102.549 447.49 105.153C447.325 107.614 447.077 110.106 447.082 112.561C447.095 115.245 448.106 116.327 450.176 116.263C452.224 116.198 453.113 115.057 453.103 112.459C453.103 111.288 453.02 110.148 452.977 108.979C452.935 108.98 452.893 108.981 452.872 108.982Z" fill="#0092DD"></path><path d="M549.027 88.2778C546.79 88.4049 545.884 89.6614 546.184 92.6793C546.415 94.9853 546.858 97.2848 547.237 99.5577C547.505 101.12 548.352 101.75 549.43 101.717C550.508 101.711 551.395 101.084 551.615 99.5635C551.934 97.2973 552.253 95.0025 552.359 92.6859C552.472 89.3695 551.453 88.1162 549.027 88.2778Z" fill="#0092DD"></path><path d="M569.641 84.9406C569.933 86.56 570.161 88.1812 570.515 89.77C570.9 91.6435 571.923 92.4115 573.317 92.3393C574.712 92.2956 575.637 91.5239 575.904 89.5729C576.069 88.2821 576.319 86.9887 576.398 85.6721C576.503 83.8975 576.749 81.9186 575.227 80.8234C573.837 79.8384 572.381 79.9411 570.97 80.728C569.562 81.572 569.514 83.1734 569.641 84.9406Z" fill="#0092DD"></path><path d="M89.4296 87.1924C89.2 86.114 88.8601 84.3248 88.4376 82.5954C88.0668 81.1215 87.1804 80.6064 86.1225 80.611C84.9368 80.5909 83.9387 81.0792 83.5326 82.7203C83.0874 84.4483 82.8556 86.2267 82.943 88.0523C83.0696 90.9623 84.3989 92.6062 86.5307 92.4538C88.4522 92.3366 89.5135 90.675 89.4296 87.1924Z" fill="#0092DD"></path><path d="M192.13 79.4115C192.005 81.7858 193.014 82.7824 194.567 83.0479C196.313 83.3645 197.838 82.2886 198.024 80.3979C198.35 77.1605 197.606 74.128 196.549 71.2195C196.173 70.1746 195.444 69.9118 194.665 69.9933C193.695 70.0808 192.999 70.7023 192.856 72.0205C192.565 74.4857 192.358 76.9483 192.13 79.4115Z" fill="#0092DD"></path><path d="M93.111 107.692C93.164 110.318 94.0733 111.461 96.1906 111.481C98.3926 111.498 99.9193 109.821 99.9118 107.279C99.9017 105.25 99.325 103.354 98.5641 101.635C97.5521 99.4097 95.3946 99.4486 94.3062 101.54C93.7515 102.586 93.0742 106.093 93.111 107.692Z" fill="#0092DD"></path><path d="M192.636 105.37C192.792 108.507 193.846 109.56 196.017 109.349C198.019 109.144 198.766 108.149 198.527 105.643C198.328 103.65 197.919 101.72 197.573 99.7603C197.336 98.4538 196.676 97.7604 195.7 97.6767C194.597 97.597 193.688 98.1967 193.422 99.6331C193.012 101.731 192.836 103.879 192.636 105.37Z" fill="#0092DD"></path><path d="M549.697 112.065C547.204 112.143 546.61 113.276 547.242 116.712C547.48 118.019 547.718 119.325 547.934 120.604C548.252 122.394 548.874 123.774 550.396 123.755C551.961 123.734 552.44 122.348 552.54 120.46C552.598 119.144 552.655 117.771 552.884 116.507C553.438 113.719 552.34 112.011 549.697 112.065Z" fill="#0092DD"></path><path d="M111.957 87.64C111.835 86.6156 111.655 85.136 111.432 83.6576C111.212 82.2649 110.728 81.1661 109.498 81.0904C108.439 81.0378 107.498 81.3529 107.041 82.7382C106.199 85.1925 105.914 87.8292 106.221 90.4759C106.446 92.5826 107.81 92.8826 109.079 92.8715C110.496 92.8557 111.814 92.4432 112.025 90.0944C112.086 89.4355 111.997 88.7527 111.957 87.64Z" fill="#0092DD"></path><path d="M173.634 74.7879C173.539 73.9338 173.467 73.1077 173.331 72.2835C173.139 71.0612 172.682 70.1328 171.658 69.9077C170.592 69.684 169.585 69.9154 169.126 71.2724C168.572 72.918 168.148 74.6453 167.852 76.3971C167.35 79.4694 167.772 80.6274 169.398 81.1193C171.474 81.7685 173.119 80.4316 173.485 77.7063C173.62 76.7594 173.584 75.7607 173.634 74.7879Z" fill="#0092DD"></path><path d="M168.555 109.952C168.47 109.355 168.241 107.706 167.971 106.086C167.784 105.006 167.252 104.338 166.423 104.221C165.53 104.106 164.626 104.248 164.249 105.517C163.454 108.112 162.897 110.843 162.872 113.643C162.857 115.557 164.118 115.918 165.266 116.082C167.137 116.337 168.455 115.353 168.683 113.461C168.76 112.688 168.624 111.835 168.555 109.952Z" fill="#0092DD"></path><path d="M158.227 91.1287C158.253 93.6148 159.029 94.5625 161.066 94.6703C163.569 94.7635 165.137 93.0279 164.994 90.2596C164.876 87.5762 163.532 85.56 161.834 85.4702C159.733 85.3644 158.19 87.7853 158.227 91.1287Z" fill="#0092DD"></path><path d="M531.481 122.735C531.688 123.785 531.89 125.264 532.236 126.652C532.484 127.644 533.119 128.252 533.944 128.283C534.898 128.339 535.616 127.746 535.89 126.538C536.344 124.496 536.541 122.348 536.295 120.214C536.085 118.507 535.478 116.927 533.956 116.946C532.393 116.966 531.53 118.25 531.394 120.339C531.356 121.025 531.443 121.679 531.481 122.735Z" fill="#0092DD"></path><path d="M487.712 76.0316C488.755 70.4012 487.768 64.7487 487.5 59.1023C487.433 57.8477 486.606 56.617 485.431 58.0246C486.296 58.5687 486.773 59.4677 486.82 60.7515C486.88 62.4061 486.983 64.0879 487.001 65.7438C487.009 67.7142 487.705 70.0057 486.852 71.5746C485.861 73.4049 484.105 71.632 482.702 72.0187C481.551 72.3403 479.632 71.9148 479.657 73.7704C479.68 76.1687 481.541 74.9967 482.624 75.1056C483.706 75.2145 484.815 74.8656 485.908 74.6886C486.769 74.5189 487.298 75.1306 487.712 76.0316Z" fill="#0092DD"></path><path d="M124.488 64.5818C123.784 65.4889 123.929 66.6819 123.969 67.8213C124.322 77.791 124.674 87.7607 125.028 97.7589C125.064 98.7559 125.099 99.7528 125.718 100.503C126.184 96.9226 125.769 93.2859 125.622 89.6974C125.245 81.354 125.336 72.9384 124.488 64.5818Z" fill="#0092DD"></path><path d="M373.725 115.934C376.05 115.804 376.818 114.208 376.685 110.554C376.597 108.127 375.596 107.387 374.07 107.349C371.972 107.3 370.673 109.427 370.789 112.625C370.897 115.022 371.802 116.051 373.725 115.934Z" fill="#0092DD"></path><path d="M82.5905 107.626C82.7688 110.792 83.4615 111.799 85.3645 111.739C87.4154 111.675 88.1258 110.253 87.947 106.487C87.796 103.491 87.0642 102.571 84.9973 102.779C82.9293 102.958 82.3766 104.061 82.5905 107.626Z" fill="#0092DD"></path><path d="M114.461 106.715C114.367 102.946 113.673 101.91 111.287 102.071C109.385 102.187 108.636 103.125 108.692 105.238C108.792 108.007 110.486 110.926 112.055 110.991C114.005 111.073 114.541 110.085 114.461 106.715Z" fill="#0092DD"></path><path d="M134.635 113.213C135.474 111.243 135.404 109.3 134.423 107.387C133.547 107.757 133.145 106.597 132.477 106.304C130.99 105.607 129.772 105.902 129.193 108.036C128.781 109.536 127.926 111.078 128.833 112.708C129.784 114.394 131.16 114.38 132.543 113.965C133.233 113.714 133.923 113.464 134.635 113.213Z" fill="#0092DD"></path><path d="M55.8622 101.646C54.5331 101.773 53.06 104.934 53.2114 107.358C53.3209 109.212 54.4893 110.49 56.0752 110.44C57.8102 110.415 58.8584 108.382 58.6069 105.532C58.3678 103.025 57.3181 101.515 55.8622 101.646Z" fill="#0092DD"></path><path d="M357.625 105.206C355.447 105.303 354.804 106.266 354.867 109.18C354.944 111.894 355.634 112.815 357.582 112.783C359.72 112.745 360.881 110.879 360.644 107.856C360.489 105.917 359.57 105.116 357.625 105.206Z" fill="#0092DD"></path><path d="M662.267 119.954C663.408 119.832 665.015 119.666 666.441 118.617C666.999 118.227 667.484 117.552 667.281 116.64C667.079 115.728 666.411 115.462 665.794 115.395C663.662 115.118 661.594 115.412 659.615 116.421C658.948 116.758 658.163 117.356 658.268 118.501C658.43 120.045 659.486 119.897 660.318 120.015C660.807 120.057 661.314 119.983 662.267 119.954Z" fill="#0092DD"></path><path d="M408.31 91.7405C408.239 89.7975 408.17 87.883 408.099 85.94C407.128 87.2005 406.343 86.0236 405.477 85.5072C404.243 84.802 403.056 84.7819 402.156 86.269C401.497 87.3766 401.439 88.6943 402.015 89.9636C402.754 91.6568 403.95 91.9054 405.232 91.6079C406.261 91.3468 407.287 90.428 408.31 91.7405Z" fill="#0092DD"></path><path d="M633.29 90.0135C634.775 90.0243 636.282 90.0344 637.532 88.8183C638.312 88.0763 638.27 86.9294 637.365 86.5273C634.928 85.4556 632.515 85.6174 630.189 86.9821C629.732 87.2547 629.347 87.7548 629.395 88.4996C629.454 89.5598 630.12 89.7685 630.717 89.8646C631.57 89.9813 632.439 89.9541 633.29 90.0135Z" fill="#0092DD"></path><path d="M515.448 123.148C516.256 121.46 516.238 119.798 515.184 118.226C515.061 119.491 514.937 120.756 514.765 122.453C512.361 120.493 509.994 120.739 507.645 121.472C507.037 121.663 506.415 122.055 506.471 123.028C506.508 124.03 507.197 124.323 507.813 124.361C509.77 124.501 511.77 124.667 513.521 123.237C514.159 122.701 514.737 122.281 515.448 123.148Z" fill="#0092DD"></path><path d="M379.165 74.2592C378.184 73.5284 377.162 72.8574 376.017 72.9237C370.425 73.3094 364.725 72.4374 359.317 75.0168C365.923 74.4811 372.536 74.1505 379.165 74.2592Z" fill="#0092DD"></path><path d="M665.569 101.309C663.181 98.6253 660.652 99.107 658.124 99.6175C657.661 99.7182 657.188 100.135 657.172 100.883C657.157 101.631 657.602 102.191 658.093 102.291C660.636 102.786 663.187 102.907 665.569 101.309Z" fill="#0092DD"></path><path d="M483.603 85.2002C480.628 82.7386 478.365 82.9245 476.079 83.6565C475.554 83.8165 475.194 84.4307 475.218 85.0902C475.242 85.7497 475.643 86.2826 476.161 86.5247C478.515 87.6566 480.68 87.1006 483.603 85.2002Z" fill="#0092DD"></path><path d="M381.601 116.795C382.055 116.21 382.215 115.463 382.184 114.609C381.986 109.054 381.788 103.499 381.591 97.9723C381.561 97.1177 381.349 96.383 380.833 95.8293C380.69 102.821 380.939 109.8 381.601 116.795Z" fill="#0092DD"></path><path d="M54.6688 85.5803C54.7214 87.0345 54.739 87.5192 54.7565 88.0039C54.7927 89.0019 54.7306 90.2028 55.6868 90.3726C56.7063 90.5405 57.2637 89.6095 57.3428 88.2939C57.4315 86.664 57.4349 85.0082 57.4383 83.3525C57.4464 82.4102 57.1053 81.7358 56.4032 81.5865C55.5303 81.3855 54.9594 81.9458 54.8099 83.0638C54.6614 84.2103 54.6826 85.38 54.6688 85.5803Z" fill="#0092DD"></path><path d="M217.699 79.6422C217.733 81.1547 217.352 82.3089 218.361 82.7342C219.306 83.133 220.067 82.5381 220.537 81.4953C221.182 80.0472 221.27 78.3881 221.145 76.7071C221.062 75.5674 220.654 74.8091 219.824 74.6637C218.866 74.4938 218.081 75.0039 217.875 76.324C217.708 77.5572 217.736 78.8985 217.699 79.6422Z" fill="#0092DD"></path><path d="M482.46 95.1922C481.89 95.2674 481.403 95.2827 480.941 95.4118C480.458 95.5416 479.956 95.7294 479.834 96.4785C479.713 97.2277 480.132 97.6732 480.547 98.0042C480.962 98.3352 481.419 98.6648 481.891 98.7934C483.436 99.2896 485.021 99.7273 486.389 98.2511C486.717 97.9255 486.651 97.2969 486.426 96.9313C485.346 95.2165 483.863 95.263 482.46 95.1922Z" fill="#0092DD"></path><path d="M508.039 110.729C509.042 110.296 511.49 111.108 511.367 108.874C511.237 106.469 508.928 107.746 507.563 107.531C507.328 107.481 507.054 107.546 506.824 107.64C506.029 107.952 504.884 107.959 505.113 109.587C505.282 110.758 506.255 110.67 506.98 110.762C507.214 110.783 507.446 110.747 508.039 110.729Z" fill="#0092DD"></path><path d="M410.155 145.467C409.987 141.366 409.861 137.263 409.673 133.162C409.602 131.738 409.877 130.161 408.963 128.964C408.454 133.857 409.085 138.742 409.176 143.616C409.186 144.472 409.501 145.175 410.155 145.467Z" fill="#0092DD"></path><path d="M406.229 26.7313C407.179 23.7603 406.538 20.6676 406.301 17.6195C406.254 16.907 405.842 16.0347 405.014 16.5175C405.797 20.6337 405.797 20.6337 403.193 21.7147C402.714 21.9011 402.366 22.2261 402.222 22.916C403.969 22.6899 405.475 22.8427 405.233 26.0772C405.58 26.3233 405.904 26.5131 406.229 26.7313Z" fill="#0092DD"></path><path d="M481.958 111.513C481.608 111.209 481.316 110.758 480.996 110.711C479.33 110.419 477.614 109.899 476.093 111.267C475.806 111.534 475.893 112.163 476.182 112.527C477.271 113.899 479.74 113.534 481.958 111.513Z" fill="#0092DD"></path><path d="M513.496 93.4912C513.116 92.3561 512.41 92.2024 511.625 92.2279C506.322 92.3996 501 92.6015 495.698 92.8026C495.041 92.8239 494.523 93.1938 494.19 93.999C499.931 93.607 505.671 93.1857 511.39 92.7945C512.13 92.7117 512.841 92.9829 513.496 93.4912Z" fill="#0092DD"></path><path d="M405.248 26.107C405.491 22.8663 403.979 22.6847 402.229 22.9397C401.767 24.2131 400.425 25.1993 401.55 26.9952C402.566 26.9634 403.603 26.931 404.62 26.8992C404.822 26.6353 405.025 26.3715 405.248 26.107Z" fill="#0092DD"></path><path d="M417.045 112.631C416.266 115.993 416.26 119.303 417.485 122.544C417.763 119.226 417.644 115.921 417.045 112.631Z" fill="#0092DD"></path><path d="M402.925 62.0169C404.347 61.5437 405.423 63.1961 406.944 63.663C407.191 61.1405 407.682 58.9247 406.38 56.8793C406.048 61.1476 406.048 61.1476 402.925 62.0169Z" fill="#0092DD"></path><path d="M483.867 58.1668C480.019 58.0277 476.196 56.811 472.338 57.5745C476.197 58.0333 480.02 59.25 483.867 58.1668Z" fill="#0092DD"></path><path d="M472.332 91.6755C471.394 93.6453 471.508 95.6389 472.503 97.5763C472.894 95.5952 472.823 93.6288 472.332 91.6755Z" fill="#0092DD"></path><path d="M133.955 53.2114C134.636 52.0672 134.248 51.3308 133.335 51.302C131.527 51.2149 129.729 51.3579 127.926 51.3859C128.929 52.1317 130.021 51.8094 131.063 51.863C132.127 51.9446 133.225 51.7949 133.955 53.2114Z" fill="#0092DD"></path><path d="M405.881 41.816C406.807 40.0748 406.83 38.3905 405.573 36.8036C405.466 38.4905 405.379 40.1768 405.881 41.816Z" fill="#0092DD"></path><path d="M401.168 107.191C400.388 108.899 400.405 110.525 401.472 112.089C401.791 110.424 401.731 108.771 401.168 107.191Z" fill="#0092DD"></path><path d="M383.221 143.488C382.975 141.926 383.52 140.111 382.337 138.836C382.062 140.557 381.663 142.339 383.221 143.488Z" fill="#0092DD"></path><path d="M136.008 133.252C136.866 131.913 136.818 130.601 135.866 129.319C135.513 130.642 135.582 131.953 136.008 133.252Z" fill="#0092DD"></path><path d="M398.8 35.1002C397.897 36.3843 397.966 37.6949 398.857 39.0083C399.273 37.711 399.205 36.4003 398.8 35.1002Z" fill="#0092DD"></path><path d="M472.395 136.728C471.515 138.04 471.582 139.322 472.473 140.635C472.89 139.338 472.8 138.028 472.395 136.728Z" fill="#0092DD"></path><path d="M401.161 16.6284C398.967 15.7532 398.396 16.3431 398.914 18.9582C399.083 17.1796 400.133 16.918 401.161 16.6284Z" fill="#0092DD"></path><path d="M402.103 67.4124C402.108 65.7858 402.09 64.1314 402.094 62.5048C400.699 64.0896 401.095 65.7321 402.103 67.4124Z" fill="#0092DD"></path><path d="M404.595 26.8884C403.577 26.9203 402.538 26.953 401.521 26.985C402.618 28.5603 403.633 28.4709 404.595 26.8884Z" fill="#0092DD"></path><path d="M388.513 143.645C386.986 143.693 385.458 143.712 383.91 143.761C385.484 145.012 387.011 144.964 388.513 143.645Z" fill="#0092DD"></path><path d="M414.227 52.6179C413.484 53.6689 413.54 54.6376 414.438 55.523C414.761 54.5423 414.705 53.5735 414.227 52.6179Z" fill="#0092DD"></path><path d="M488.544 102.069C489.332 101.102 489.34 100.16 488.523 99.1576C488.114 100.112 488.128 101.083 488.544 102.069Z" fill="#0092DD"></path><path d="M415.542 43.2269C414.643 41.8236 413.771 40.5626 413.35 43.5818C413.997 42.7027 414.779 43.2222 415.542 43.2269Z" fill="#0092DD"></path><path d="M407.369 69.2878C407.384 68.5149 407.562 67.5938 406.851 67.2727C405.99 66.8991 405.644 67.8827 405.269 68.6382C406.046 68.4423 406.785 68.3619 407.369 69.2878Z" fill="#0092DD"></path><path d="M354.725 75.6322C353.521 75.7858 352.227 75.22 351.141 76.3233C352.381 76.573 353.608 76.4475 354.725 75.6322Z" fill="#0092DD"></path><path d="M472.728 124.712C472.073 125.332 472.033 125.961 472.734 126.624C473.091 125.985 473.09 125.357 472.728 124.712Z" fill="#0092DD"></path><path d="M513.829 98.1447C514.48 97.4391 514.415 96.8131 513.696 96.236C513.403 96.9019 513.427 97.5578 513.829 98.1447Z" fill="#0092DD"></path><path d="M488.658 127.101C489.334 126.48 489.374 125.851 488.652 125.188C488.273 125.8 488.296 126.456 488.658 127.101Z" fill="#0092DD"></path><path d="M133.82 70.2223C134.474 69.6023 134.536 68.9723 133.835 68.3091C133.456 68.949 133.458 69.577 133.82 70.2223Z" fill="#0092DD"></path><path d="M492.954 144.062C492.189 144.057 491.405 144.082 490.641 144.077C491.43 144.774 492.214 144.749 492.954 144.062Z" fill="#0092DD"></path><path d="M126.3 51.0654C125.961 50.5025 125.555 50.4291 125.076 50.6736C125.451 51.0634 125.86 51.2226 126.3 51.0654Z" fill="#0092DD"></path><path d="M125.632 133.723C125.343 133.932 125.075 134.141 124.784 134.322C125.192 134.452 125.459 134.215 125.632 133.723Z" fill="#0092DD"></path><path d="M417.061 44.1399C416.778 43.9485 416.495 43.7286 416.233 43.5366C416.418 43.9598 416.661 44.2096 417.061 44.1399Z" fill="#0092DD"></path><path d="M418.579 45.0572C418.318 44.8651 418.056 44.673 417.773 44.4531C417.958 44.8764 418.2 45.1262 418.579 45.0572Z" fill="#0092DD"></path><path d="M420.098 46.0029C419.837 45.8108 419.575 45.6187 419.314 45.4266C419.477 45.8221 419.719 46.072 420.098 46.0029Z" fill="#0092DD"></path><path d="M421.618 46.9768C421.357 46.7848 421.094 46.5642 420.833 46.3721C420.997 46.7961 421.26 47.0453 421.618 46.9768Z" fill="#0092DD"></path><path d="M389.727 142.519C389.546 142.782 389.365 143.044 389.185 143.336C389.588 143.352 389.746 143.033 389.727 142.519Z" fill="#0092DD"></path><path d="M424.746 49.0077C424.44 48.7599 424.114 48.5414 423.808 48.2936C424.038 48.7725 424.323 49.021 424.746 49.0077Z" fill="#0092DD"></path><path d="M418.025 144.622C417.817 144.743 417.676 144.947 417.581 145.236C417.922 145.282 418.062 145.049 418.025 144.622Z" fill="#0092DD"></path><path d="M494.785 142.971C494.598 143.063 494.477 143.238 494.401 143.498L494.716 143.402L494.785 142.971Z" fill="#0092DD"></path><path d="M489.869 143.885C489.627 143.635 489.385 143.385 489.121 143.136C489.205 143.705 489.448 143.955 489.869 143.885Z" fill="#0092DD"></path><path d="M416.914 145.658C416.685 145.78 416.436 145.931 416.207 146.053C416.555 146.3 416.737 146.036 416.914 145.658Z" fill="#0092DD"></path><path d="M411.537 146.159C411.338 145.936 411.122 145.829 410.868 145.836C411.03 146.204 411.229 146.427 411.537 146.159Z" fill="#0092DD"></path><path d="M425.309 49.329C425.2 49.2466 425.07 49.1649 424.962 49.1111L425.101 49.4214L425.309 49.329Z" fill="#0092DD"></path><path d="M317.734 57.2564C318.122 66.2363 318.238 75.2534 319.3 84.1837C319.813 88.4211 322.083 90.4909 324.568 87.9865C329.152 83.3895 333.87 78.9882 338.115 73.7739C338.842 72.8661 339.104 71.9159 338.659 70.7023C334.773 60.1763 334.883 48.6401 333.297 37.4996C332.846 34.3737 332.542 31.243 332.301 28.082C332.17 26.202 331.635 25.4195 330.222 25.4638C326.763 25.5722 323.326 25.68 319.86 25.5888C317.852 25.5376 317.395 26.9221 317.333 29.2649C317.166 35.7502 317.042 42.2341 317.404 48.7314C317.571 51.5808 317.632 54.4335 317.734 57.2564ZM327.059 32.5854C329.185 32.4045 330.044 33.3767 330.165 36.1419C330.37 40.0464 329.785 41.3779 327.768 41.6695C325.52 41.9683 324.639 40.9683 324.419 37.8065C324.201 34.1023 324.87 32.7682 327.059 32.5854Z" fill="#F8F7FA"></path><path d="M602.854 106.481C602.451 105.266 603.647 102.774 601.705 102.693C599.994 102.604 600.33 104.905 600.345 106.503C600.357 107.986 600.412 109.497 600.507 110.978C600.568 112.061 600.978 112.904 601.882 112.847C602.661 112.794 602.798 111.934 602.81 111.106C602.84 109.592 602.828 108.109 602.854 106.481Z" fill="white"></path><path d="M601.844 48.8375C602.376 46.6224 602.051 44.6626 601.98 42.6949C601.853 39.1872 601.811 39.1885 598.632 38.9169C598.152 40.8163 598.626 42.8286 598.506 44.7737C598.343 47.8337 599.542 48.8811 601.844 48.8375Z" fill="white"></path><path d="M602.485 76.4968C602.461 75.8408 602.458 75.1557 602.413 74.5004C602.335 73.532 601.873 73.004 601.175 72.9973C600.583 72.9873 599.924 72.8937 599.532 73.734C599.141 74.6029 599.391 79.763 599.886 80.5756C600.336 81.3324 600.969 81.3125 601.579 81.2363C602.127 81.1906 602.49 80.7224 602.528 80.0074C602.57 78.8355 602.549 77.6655 602.549 76.5233C602.527 76.4955 602.506 76.4961 602.485 76.4968Z" fill="white"></path><path d="M327.097 32.6032C324.902 32.7862 324.231 34.1217 324.47 37.8006C324.69 40.9656 325.552 41.9674 327.828 41.6676C329.83 41.4049 330.416 40.0436 330.232 36.1344C330.09 33.3955 329.229 32.4223 327.097 32.6032Z" fill="#0092DD"></path></svg>